HIERARCHY
ROOT Hips
{
  OFFSET 279.157 85.6768 304.565
  CHANNELS 6 Xposition Yposition Zposition Zrotation Xrotation Yrotation
  JOINT LeftUpLeg
  {
    OFFSET 8.64259 1.95398 -2.38835
    CHANNELS 3 Zrotation Xrotation Yrotation
    JOINT LeftLeg
    {
      OFFSET 43.7702 0 0
      CHANNELS 3 Zrotation Xrotation Yrotation
      JOINT LeftFoot
      {
        OFFSET 40.6238 0 0
        CHANNELS 3 Zrotation Xrotation Yrotation
        JOINT LeftToeBase
        {
          OFFSET 12.7242 0 0
          CHANNELS 3 Zrotation Xrotation Yrotation
          End Site
          {
            OFFSET 0 0 0
          }
        }
      }
    }
  }
  JOINT RightUpLeg
  {
    OFFSET -8.2249 1.95398 -2.59336
    CHANNELS 3 Zrotation Xrotation Yrotation
    JOINT RightLeg
    {
      OFFSET 43.5653 0 0
      CHANNELS 3 Zrotation Xrotation Yrotation
      JOINT RightFoot
      {
        OFFSET 40.6238 0 0
        CHANNELS 3 Zrotation Xrotation Yrotation
        JOINT RightToeBase
        {
          OFFSET 12.7242 0 0
          CHANNELS 3 Zrotation Xrotation Yrotation
          End Site
          {
            OFFSET 0 0 0
          }
        }
      }
    }
  }
  JOINT Spine
  {
    OFFSET 0.165834 0.87714 6.61349
    CHANNELS 3 Zrotation Xrotation Yrotation
    JOINT Spine1
    {
      OFFSET 7.38963 1.71661e-005 0
      CHANNELS 3 Zrotation Xrotation Yrotation
      JOINT Spine2
      {
        OFFSET 11.9445 1.14441e-005 0
        CHANNELS 3 Zrotation Xrotation Yrotation
        JOINT Spine3
        {
          OFFSET 14.7254 4.19617e-005 0
          CHANNELS 3 Zrotation Xrotation Yrotation
          JOINT Spine4
          {
            OFFSET 10.9679 0 0
            CHANNELS 3 Zrotation Xrotation Yrotation
            JOINT RightShoulder
            {
              OFFSET 2.46616 -1.6653 3.69651
              CHANNELS 3 Zrotation Xrotation Yrotation
              JOINT RightArm
              {
                OFFSET 13.0012 0 0
                CHANNELS 3 Zrotation Xrotation Yrotation
                JOINT RightForeArm
                {
                  OFFSET 28.7848 1.52588e-005 0
                  CHANNELS 3 Zrotation Xrotation Yrotation
                  JOINT RightHand
                  {
                    OFFSET 26.5688 1.52588e-005 0
                    CHANNELS 3 Zrotation Xrotation Yrotation
                    End Site
                    {
                      OFFSET 0 0 0
                    }
                  }
                }
              }
            }
            JOINT LeftShoulder
            {
              OFFSET 2.38034 -1.29275 -3.7523
              CHANNELS 3 Zrotation Xrotation Yrotation
              JOINT LeftArm
              {
                OFFSET 16.3182 6.10351e-005 0
                CHANNELS 3 Zrotation Xrotation Yrotation
                JOINT LeftForeArm
                {
                  OFFSET 27.0901 0 0
                  CHANNELS 3 Zrotation Xrotation Yrotation
                  JOINT LeftHand
                  {
                    OFFSET 24.5451 1.52588e-005 0
                    CHANNELS 3 Zrotation Xrotation Yrotation
                    End Site
                    {
                      OFFSET 0 0 0
                    }
                  }
                }
              }
            }
            JOINT Neck
            {
              OFFSET 5.0226 -0.0266342 0
              CHANNELS 3 Zrotation Xrotation Yrotation
              JOINT Head
              {
                OFFSET 6.69364 2.86102e-005 0
                CHANNELS 3 Zrotation Xrotation Yrotation
                End Site
                {
                  OFFSET 0 0 0
                }
              }
            }
          }
        }
      }
    }
  }
}
MOTION
Frames:	9
Frame Time:	0.0416667
-295.765 92.6162 284.972 -102.176 -41.7439 -98.629 -171.511 4.39533 91.1453 -39.9675 17.4891 -1.67794 84.0296 15.2614 -0.290532 17.101 -8.75968 6.3506 177.182 17.0995 89.1495 -13.5675 -9.72036 -0.67639 51.6351 2.03081 1.80659 21.8366 2.12832 1.39771 0.863015 8.50876 -90.4814 9.863 1.50184 -1.07611 -1.80758 1.45303 -1.14117 -24.3484 1.75581 -0.574914 -4.33576 1.7558 -0.574914 90.2206 -29.8956 -106.361 37.9661 -5.60455 -0.845313 3.21356 -9.2935 -12.1518 -23.1402 0.120384 -8.05046 -91.7506 -53.2195 76.8771 -16.5749 2.91167 -30.973 9.4534 18.1532 -18.4487 2.55669 -0.508729 -14.0629 3.13677 -1.05073 -8.18279 -4.9479 0.328806 -0.00639334 
-292.702 94.3774 282.949 -105.668 -41.226 -101.654 -172.208 1.12175 90.3998 -33.8185 17.5494 -1.62741 78.3903 11.901 0.331992 16.2595 -8.88388 5.29483 173.656 16.1508 88.5668 -23.8744 2.95437 1.19442 57.7673 -0.208164 -0.32541 20.9957 2.16558 2.59755 0.461962 8.39004 -89.9211 10.0918 0.956497 0.0773775 -1.57885 0.95898 0.0352004 -24.1163 0.889009 0.361297 -4.10367 0.889043 0.361297 87.7438 -33.347 -109.785 36.43 -7.36999 -2.3836 3.07633 -12.0912 -12.8914 -24.8772 0.218986 -9.08733 -88.1788 -48.5784 81.1862 -16.1232 2.85341 -22.4188 10.2655 10.1042 -27.223 7.77372 -0.838741 -12.7135 -4.227 0.124236 -11.6993 -2.89664 1.33175 2.43469 
-289.933 95.8164 281.414 -108.456 -41.3 -103.978 -173.651 -1.515 87.9806 -27.4589 17.3613 -0.765291 74.268 9.56615 1.01435 13.0438 -10.9865 5.44447 170.375 13.8006 86.4941 -42.9659 0.0848271 1.68781 62.395 -1.57515 0.0226827 23.3262 1.35172 2.86671 0.366016 8.27218 -90.0798 10.3324 0.692796 -0.213973 -1.33835 0.682698 -0.244257 -23.8752 0.725051 0.00414008 -3.86259 0.725073 0.0041447 90.0447 -30.1381 -106.585 35.8573 -10.2131 -5.46246 2.22037 -22.7266 -15.1855 -24.0085 -0.325158 -9.45664 -87.9869 -50.8753 81.8945 -17.1006 3.77577 -11.9841 7.1921 3.6985 -27.1375 8.02657 -0.943921 -13.7775 -11.0026 0.35881 -5.07977 -2.38069 0.626573 -0.643688 
-287.817 96.4539 279.559 -108.757 -41.7219 -104.857 -174.347 -1.66319 87.3643 -23.9669 17.8984 -0.743823 70.643 7.40212 0.898633 12.9144 -10.987 5.25243 168.662 7.40867 83.9425 -55.8218 -4.41187 0.248558 62.6246 -1.45965 -0.215121 23.0923 1.5392 2.30528 0.448202 7.96547 -90.1142 10.9444 0.83953 -0.308255 -0.726301 0.825139 -0.34492 -23.2638 0.893334 -0.0416705 -3.25111 0.893343 -0.041679 88.4569 -27.6806 -110.812 34.6796 -8.3977 -5.05101 0.945209 -22.3696 -16.4021 -25.5668 -0.375743 -8.85492 -86.4024 -53.9743 84.7167 -18.1623 6.63363 -1.39979 4.48406 2.05987 -24.5053 5.20897 -0.621534 -12.3092 -15.1413 0.186067 -1.53784 -3.61281 0.237421 -3.25502 
-285.266 96.3239 276.875 -110.001 -40.7994 -106.853 -174.753 -0.655117 86.2107 -23.18 17.1925 -1.13609 68.0909 5.82702 0.77818 12.369 -11.1713 4.87989 168.236 -3.82492 80.7356 -54.6751 -11.3695 -2.22686 62.5295 -1.44343 -0.208802 23.9845 1.0464 3.47094 0.874966 7.98378 -89.9931 10.9085 1.74532 -0.150843 -0.761269 1.73695 -0.227533 -23.3056 1.70994 0.380828 -3.29291 1.70992 0.380822 87.9553 -25.4576 -112.925 33.0974 -8.06519 -6.54892 2.08179 -22.5581 -15.3221 -24.9069 -0.325958 -9.24479 -85.4513 -57.8089 86.5592 -18.4353 8.40695 6.48665 0.810056 -1.98738 -16.6342 3.72308 -0.373924 -9.68857 -15.8037 -1.13274 -0.802092 -4.42335 -1.04441 -4.72165 
-281.014 95.5328 270.88 -103.295 -40.8779 -98.9576 -173.825 11.3891 88.4842 -25.8188 17.9396 -1.31355 65.3743 3.77557 0.67229 11.314 -11.7824 4.73949 172.823 -8.13991 87.5094 -42.2787 -16.3911 -3.04868 65.1436 -3.11166 -1.24223 28.616 -0.278912 3.01849 1.3015 7.47291 -90.3116 11.9442 2.44168 -0.87324 0.275163 2.40087 -0.979912 -22.2782 2.59123 -0.0985919 -2.26554 2.59123 -0.0985933 88.7027 -24.8167 -111.673 30.9448 -7.36444 -11.1253 1.51949 -25.7865 -15.4746 -24.4109 -0.572196 -9.24349 -85.9281 -61.7732 86.384 -19.0672 13.8128 11.2079 -4.0368 -19.4205 -5.46609 3.09809 -0.130552 -4.82915 -13.8503 -2.15016 0.567418 -5.57771 -1.97908 -6.59554 
-275.42 95.1522 265.493 -104.355 -35.6954 -101.206 -175.217 9.73146 88.1054 -16.855 12.2725 -1.24117 57.6564 -0.891032 -1.12831 11.1731 -12.0136 5.0498 171.477 -11.9169 83.5366 -32.9443 -23.7696 -5.61778 71.8261 -7.59933 -3.60855 39.6412 -3.80289 4.5138 1.62476 8.10133 -90.0714 10.6812 3.2027 -0.439349 -0.985897 3.18025 -0.580031 -23.5528 3.18649 0.544529 -3.54011 3.1865 0.544526 88.8944 -25.2505 -111.056 27.4815 -6.64138 -16.0915 -0.257017 -25.3338 -19.1243 -32.6089 -0.895163 -6.78293 -86.7553 -61.6776 85.2746 -24.775 6.80061 13.7519 -0.069815 -17.0896 -1.51449 -2.74939 -0.0891594 -2.32458 -8.97228 -1.33522 2.99757 -5.73907 -1.34501 -5.56632 
-269.54 95.0317 258.273 -102.616 -40.4388 -97.0767 -174.708 13.374 91.8988 -9.99302 7.3735 -1.51588 57.0702 -0.246863 -1.55004 12.2861 -12.7559 8.26221 173.165 -8.03087 89.535 -27.8021 -18.1717 -1.48148 76.671 -10.0896 -2.73649 30.6056 -1.10342 4.29856 1.03251 8.30629 -90.4707 10.2703 1.84196 -1.09892 -1.4 1.79179 -1.17893 -23.944 2.08706 -0.494365 -3.93131 2.08705 -0.494369 88.5372 -28.3866 -110.353 23.9443 -5.72823 -15.699 -3.88289 -26.0418 -25.3483 -35.604 -0.559226 -8.26564 -88.4886 -58.2229 82.4326 -26.1081 10.0182 8.44671 -1.54054 -7.21211 -1.96878 -4.2595 -0.11765 -2.31352 -3.77185 -0.615234 1.65526 -5.87622 -0.701444 -2.27376 
-264.842 96.2531 252.244 -106.833 -42.6608 -104.993 -172.3 12.2163 87.7005 -20.0804 -8.71921 -3.35684 60.2622 1.66686 -0.598589 11.7316 -12.0297 5.87296 171.702 -4.76671 86.0236 -29.927 -16.9273 -2.01328 75.2609 -8.96559 -2.83474 27.7743 -0.168157 3.71867 0.595543 8.81995 -89.9798 9.23453 1.19682 -0.0465297 -2.43587 1.19361 -0.0991736 -24.9752 1.15545 0.315356 -4.96259 1.15547 0.315368 88.8059 -30.034 -109.103 27.3225 -5.41031 -9.49464 -0.868227 -25.1911 -21.3406 -37.0427 -0.813126 -7.0533 -89.6457 -54.5661 80.1705 -21.0646 12.3773 -3.60095 -2.55305 0.953462 -1.03126 1.2849 -0.0885098 -4.30654 -5.24055 -0.816414 -2.41933 -6.75402 -0.568334 -0.432167 
